<?xml version="1.0" encoding="utf-8"?>
<!-- Generator: Adobe Illustrator 16.0.0, SVG Export Plug-In . SVG Version: 6.00 Build 0)  -->
<!DOCTYPE svg PUBLIC "-//W3C//DTD SVG 1.1//EN" "http://www.w3.org/Graphics/SVG/1.1/DTD/svg11.dtd">
<svg version="1.1" id="Layer_1" xmlns="http://www.w3.org/2000/svg" xmlns:xlink="http://www.w3.org/1999/xlink" x="0px" y="0px"
	 width="841.889px" height="595.281px" viewBox="0 0 841.889 595.281" enable-background="new 0 0 841.889 595.281"
	 xml:space="preserve">
<g>
	<circle fill="#324A5E" cx="305.323" cy="283" r="30"/>
	<path fill="#2B3B4E" d="M326.536,304.214c4.957-4.957,7.815-11.218,8.579-17.678l-23.243-23.242l-0.438,7.104l-7.603-7.66
		l-2.364,3.271l-1.057,2.413l2.509,2.48l-1.16,2.202l5.182,5.183l-5.035,3.857l6.536,6.536l-11.71,2.803l-2.077,0.497l-2.451,7.897
		L305.326,313C313.003,312.998,320.679,310.07,326.536,304.214z"/>
	<path fill="#66B31B" d="M310.372,282.51l-0.764-2.836c-0.927-3.443-4.47-5.484-7.914-4.559l-2.835,0.763l0.764,2.835
		c0.927,3.444,4.47,5.484,7.914,4.56L310.372,282.51z"/>
	<path fill="#599B13" d="M311.783,283.855c-0.104,0-0.206-0.026-0.303-0.081l-8.676-4.998c-0.29-0.167-0.39-0.538-0.223-0.828
		s0.537-0.39,0.827-0.223l8.677,4.998c0.29,0.167,0.39,0.538,0.223,0.828C312.197,283.746,311.993,283.855,311.783,283.855z"/>
	<path fill="#79D720" d="M311.872,283.362l-3.136-3.136c-3.811-3.811-3.811-9.987,0-13.797l3.136-3.137l3.136,3.137
		c3.811,3.811,3.811,9.986,0,13.798L311.872,283.362z"/>
	<path fill="#66B31B" d="M315.009,266.429l-3.136-3.137l0,0l-0.085,19.984l0.085,0.084l3.136-3.136
		C318.818,276.417,318.818,270.239,315.009,266.429z"/>
	<path fill="#599B13" d="M311.872,291.682c-0.334,0-0.605-0.271-0.605-0.605v-20.071c0-0.334,0.271-0.604,0.605-0.604
		c0.335,0,0.605,0.271,0.605,0.604v20.071C312.478,291.411,312.208,291.682,311.872,291.682z"/>
	<path fill="#538913" d="M311.872,270.4c-0.028,0-0.058,0.005-0.084,0.009v21.265c0.026,0.006,0.056,0.01,0.084,0.01
		c0.335,0,0.605-0.271,0.605-0.606v-20.07C312.478,270.672,312.208,270.4,311.872,270.4z"/>
	<path fill="#FFD15D" d="M302.124,273.19c-0.122,0-0.247-0.028-0.363-0.087c-0.398-0.201-0.559-0.688-0.357-1.086l1.697-3.361
		h-2.121c-0.279,0-0.541-0.146-0.688-0.385c-0.146-0.238-0.159-0.537-0.032-0.787l2.289-4.533c0.201-0.398,0.688-0.559,1.086-0.356
		c0.398,0.201,0.559,0.688,0.355,1.086l-1.696,3.36h2.121c0.28,0,0.541,0.146,0.688,0.384c0.146,0.239,0.159,0.537,0.033,0.788
		l-2.29,4.533C302.704,273.028,302.419,273.19,302.124,273.19z"/>
	<path fill="#FFEDB5" d="M320.446,286.762c-0.323-0.451-0.913-0.63-1.434-0.435c-0.008,0.003-0.016,0.006-0.021,0.009l-8.803,2.931
		c0.002,0.069,0.001,0.142-0.004,0.214c-0.073,1.124-0.941,2.025-2.06,2.14l-5.306,0.551c-0.335,0.035-0.635-0.209-0.67-0.544
		s0.209-0.644,0.544-0.67l5.306-0.552c0.522-0.057,0.933-0.478,0.967-1.005c0.019-0.288-0.076-0.566-0.267-0.783
		c-0.191-0.217-0.454-0.347-0.742-0.365l-7.042-0.459c-0.791-0.052-1.576,0.123-2.271,0.505l-9.288,5.115l2.517,5.07l2.333-2.035
		c0.989-0.863,2.303-1.236,3.601-1.02l7.799,1.295c1.43,0.188,2.861-0.166,4.035-1.004l10.618-7.312
		C320.731,287.994,320.816,287.276,320.446,286.762z"/>
	<g>
		<path fill="#FEE187" d="M307.999,290.406c0.522-0.057,0.933-0.478,0.967-1.005c0.019-0.288-0.076-0.566-0.267-0.783
			c-0.191-0.217-0.454-0.348-0.742-0.365l-2.096-0.137v2.513L307.999,290.406z"/>
		<path fill="#FEE187" d="M320.446,286.762c-0.323-0.451-0.913-0.63-1.434-0.435c-0.008,0.003-0.016,0.006-0.023,0.009l-8.801,2.931
			c0.002,0.069,0,0.142-0.004,0.214c-0.074,1.124-0.942,2.025-2.06,2.14l-2.264,0.235v4.897c1.343,0.115,2.675-0.246,3.777-1.032
			l10.618-7.312C320.731,287.994,320.816,287.276,320.446,286.762z"/>
	</g>
	
		<rect x="289.727" y="291.91" transform="matrix(0.8257 -0.5642 0.5642 0.8257 -115.9626 216.0872)" fill="#4CDBC4" width="3.872" height="7.539"/>
</g>
<g>
	<circle fill="#324A5E" cx="400.314" cy="283" r="30"/>
	<g>
		<path fill="#CBCDD1" d="M413.073,287.827c-1.517,0-2.759-1.241-2.759-2.759c0-0.413,0.275-0.689,0.689-0.689
			s0.688,0.276,0.688,0.689c0,0.759,0.621,1.38,1.38,1.38c0.76,0,1.381-0.621,1.381-1.38c0-0.758-0.621-1.379-1.381-1.379
			c-0.205,0-0.345-0.069-0.481-0.207s-0.207-0.275-0.207-0.482v-15.861c0-0.414,0.276-0.689,0.688-0.689l0,0
			c0.413,0,0.69,0.275,0.69,0.689v15.24c1.172,0.276,2.068,1.38,2.068,2.689C415.831,286.586,414.59,287.827,413.073,287.827"/>
		<path fill="#FEC24C" d="M411.21,265.068l-14.828,15.862h4.828c0.481,0,0.966,0.068,1.379,0.207l10.482-14
			C412.038,267.069,411.21,266.172,411.21,265.068"/>
		<path fill="#535353" d="M409.969,303.002h-21.38c-2.068,0-3.793-1.726-3.793-3.793l0,0c0-2.07,1.725-3.796,3.793-3.796h21.38
			c2.069,0,3.793,1.726,3.793,3.796l0,0C413.762,301.276,412.038,303.002,409.969,303.002"/>
		<g>
			<path fill="#A2A2A2" d="M391.003,299.209c0-0.968-0.758-1.726-1.725-1.726c-0.966,0-1.724,0.758-1.724,1.726
				c0,0.965,0.758,1.723,1.724,1.723C390.245,300.931,391.003,300.174,391.003,299.209"/>
			<path fill="#A2A2A2" d="M411.003,299.209c0-0.968-0.758-1.726-1.726-1.726c-0.965,0-1.724,0.758-1.724,1.726
				c0,0.965,0.759,1.723,1.724,1.723C410.245,300.93,411.003,300.174,411.003,299.209"/>
		</g>
		<path fill="#BC8D2F" d="M395.831,295.413h6.896v-2.067h-6.896V295.413z"/>
		<path fill="#FEC24C" d="M394.452,282.31v5.517h-7.519c-1.172,0-2.139,0.966-2.139,2.138v3.381h9.656h11.032v-8.139
			c0-0.552-0.067-1.104-0.274-1.587c-0.621-1.655-2.207-2.688-4-2.688h-5.379C395.073,280.93,394.452,281.552,394.452,282.31"/>
		<g>
			<path fill="#BC8D2F" d="M386.935,287.827c-1.172,0-2.139,0.966-2.139,2.138v0.621h3.449c1.172,0,2.067-0.966,2.067-2.068v-0.689
				L386.935,287.827L386.935,287.827z"/>
			<path fill="#BC8D2F" d="M401.073,280.93H397.9v4.966c0,1.172,0.761,2.207,1.862,2.62l5.724,2.068v-5.379
				c0-1.38-0.688-2.689-1.86-3.587C402.865,281.137,401.969,280.93,401.073,280.93"/>
		</g>
		<path fill="#CBCDD1" d="M407.555,299.209c0-0.828,0.621-1.519,1.38-1.726l0,0h-9.655h-9.654l0,0
			c0.758,0.137,1.379,0.828,1.379,1.726c0,0.896-0.621,1.516-1.379,1.723l0,0h9.654h9.655l0,0
			C408.176,300.723,407.555,300.034,407.555,299.209"/>
		<g>
			<path fill="#BC8D2F" d="M415.349,265.068c0-1.172-0.896-2.068-2.069-2.068c-1.173,0-2.068,0.896-2.068,2.068
				c0,1.173,0.896,2.069,2.068,2.069C414.383,267.137,415.349,266.241,415.349,265.068"/>
			<path fill="#BC8D2F" d="M410.796,270.172l-0.275-3.724c0-0.207-0.067-0.345-0.207-0.414l-1.104,1.173l0.275,3.172l-3.654,0.483
				l-1.379,1.517l0.274,4.414l-5.034,0.689l-1.24,1.311c0.138,0.139,0.274,0.207,0.481,0.207h0.068l5.862-0.759l1.173-1.586
				l-0.276-4.276l3.862-0.481L410.796,270.172z"/>
		</g>
		<path fill="#A2A2A2" d="M414.452,281.62h-2.761c-0.413,0-0.688-0.274-0.688-0.688s0.275-0.689,0.688-0.689h2.761
			c0.412,0,0.688,0.275,0.688,0.689S414.865,281.62,414.452,281.62"/>
	</g>
</g>
<g>
	<circle fill="#324A5E" cx="495.305" cy="283" r="30"/>
	<path fill="#2B3B4E" d="M500.02,312.631c12.99-2.052,23.208-12.438,25.003-25.513l-28.896-28.896l-0.684,19.201l-15.562,8.594
		l16.01,16.009l-3.081,3.396L500.02,312.631z"/>
	<path fill="#E6F3FF" d="M496.338,305.909h-2.454c-0.816,0-1.466-0.682-1.429-1.496l1.229-25.919
		c0.036-0.762,0.664-1.361,1.427-1.361l0,0c0.765,0,1.393,0.6,1.428,1.361l1.228,25.919
		C497.804,305.227,497.154,305.909,496.338,305.909z"/>
	<path fill="#CFDBE6" d="M496.537,278.493c-0.034-0.742-0.633-1.328-1.367-1.357v28.773h1.168c0.814,0,1.466-0.682,1.427-1.496
		L496.537,278.493z"/>
	<path fill="#FFD15D" d="M496.259,275.735v-17.101c0-0.665-0.722-0.782-0.845-0.137l-2.594,13.681
		c-0.036,0.191,0.007,0.396,0.113,0.535l2.594,3.42C495.798,276.49,496.259,276.239,496.259,275.735z"/>
	<g>
		<path fill="#F9B54C" d="M495.414,258.499l-0.244,1.294v15.87l0.357,0.472c0.271,0.355,0.73,0.104,0.73-0.398v-17.1
			C496.259,257.969,495.537,257.852,495.414,258.499z"/>
		<path fill="#F9B54C" d="M494.592,277.596l14.81,8.55c0.576,0.333,1.038-0.233,0.539-0.662l-10.55-9.086
			c-0.148-0.128-0.346-0.192-0.521-0.17l-4.259,0.536C494.169,276.819,494.156,277.344,494.592,277.596z"/>
	</g>
	<path fill="#FFD15D" d="M495.41,277.596l-14.809,8.55c-0.577,0.333-1.039-0.233-0.541-0.662l10.551-9.086
		c0.148-0.128,0.347-0.192,0.521-0.17l4.258,0.536C495.835,276.819,495.847,277.344,495.41,277.596z"/>
	<circle fill="#324A5E" cx="495.095" cy="276.8" r="3.18"/>
	<path fill="#2B3B4E" d="M498.275,276.8c0-1.73-1.383-3.136-3.104-3.176v6.353C496.892,279.936,498.275,278.531,498.275,276.8z"/>
</g>
<g>
	<path fill="#324A5E" d="M302.807,361.761c16.567,0,30,13.433,30,30c0,16.564-13.433,30-30,30c-16.566,0-30-13.434-30-30
		C272.807,375.194,286.238,361.761,302.807,361.761z"/>
	<path fill="#E2574C" d="M289.68,386.142h7.528v-7.508c0-1.035,0.838-1.875,1.873-1.875h7.491c1.033,0,1.871,0.84,1.871,1.875v7.506
		h7.489c1.037,0,1.875,0.838,1.875,1.875v7.502c0,1.039-0.838,1.879-1.875,1.879h-7.489v7.484c0,1.037-0.838,1.875-1.871,1.875
		h-7.491c-1.035,0-1.873-0.838-1.873-1.875v-7.484h-7.528c-1.037,0-1.877-0.84-1.877-1.879v-7.502
		C287.803,386.98,288.643,386.142,289.68,386.142z"/>
</g>
<image overflow="visible" enable-background="new    " width="512" height="512" xlink:href="Source/169773.png"  transform="matrix(0.1172 0 0 0.1172 368.9993 357.281)">
</image>
<g>
	<circle fill="#324A5E" cx="497.445" cy="383.218" r="30"/>
	<path fill="#2B3B4E" d="M527.445,383.218c0-0.612-0.021-1.222-0.058-1.824l-20.803-20.804c-0.076,0.075,0.159,18.595,0.159,18.595
		l-2.633,0.7c-8.71,0.404-25.474,4.986-25.556,4.986l12.634,12.635c-2.925,0.958-7.003,2.304-7.078,2.379l13.333,13.333
		C514.013,413.218,527.445,399.785,527.445,383.218z"/>
	<path fill="#66B31B" d="M506.584,374.279l-2.141-2.139c-2.6-2.601-2.6-6.812,0-9.412l2.141-2.14l2.139,2.14
		c2.6,2.6,2.6,6.812,0,9.412L506.584,374.279z"/>
	<path fill="#599B13" d="M508.723,362.728l-2.141-2.141l0,0l-0.048,13.644l0.048,0.048l2.141-2.139
		C511.323,369.541,511.323,365.328,508.723,362.728z"/>
	<path fill="#E6F3FF" d="M506.582,380.556c-0.335,0-0.604-0.271-0.604-0.605v-12.492c0-0.334,0.271-0.604,0.604-0.604
		c0.335,0,0.606,0.271,0.606,0.604v12.492C507.19,380.285,506.918,380.556,506.582,380.556z"/>
	<path fill="#CFDBE6" d="M506.582,366.853c-0.017,0-0.031,0.004-0.048,0.004v13.695c0.017,0,0.031,0.004,0.048,0.004
		c0.336,0,0.606-0.271,0.606-0.605v-12.492C507.19,367.125,506.918,366.853,506.582,366.853z"/>
	<polygon fill="#F4E3C3" points="510.778,399.885 484.112,399.885 484.112,381.369 497.445,373.435 510.778,381.369 	"/>
	<polygon fill="#FED8B2" points="510.778,381.369 497.445,373.435 497.445,399.885 510.778,399.885 	"/>
	<polygon fill="#935635" points="497.445,374.953 513.139,387.406 516.332,384.871 497.445,369.884 478.556,384.871 481.75,387.406 
			"/>
	<polygon fill="#804000" points="516.332,384.871 497.445,369.884 497.445,374.953 513.139,387.406 	"/>
	<rect x="494.112" y="386.552" fill="#B97850" width="6.666" height="13.333"/>
	<rect x="497.445" y="386.552" fill="#935635" width="3.333" height="13.333"/>
</g>
</svg>
