<?xml version="1.0" encoding="iso-8859-1"?>
<!-- Generator: Adobe Illustrator 19.0.0, SVG Export Plug-In . SVG Version: 6.00 Build 0)  -->
<svg version="1.1" id="Layer_1" xmlns="http://www.w3.org/2000/svg" xmlns:xlink="http://www.w3.org/1999/xlink" x="0px" y="0px"
	 viewBox="0 0 512 512" style="enable-background:new 0 0 512 512;" xml:space="preserve">
<circle style="fill:#FC6F58;" cx="256" cy="256" r="256"/>
<path style="fill:#F1543F;" d="M296.233,508.844c110.852-17.501,198.039-106.143,213.356-217.705L263.015,44.563l-5.83,163.852
	L124.376,281.74l136.611,136.613l-26.286,28.962L296.233,508.844z"/>
<path style="fill:#E6F3FF;" d="M264.818,451.493h-20.945c-6.959,0-12.507-5.816-12.178-12.767l10.473-221.182
	c0.309-6.501,5.668-11.614,12.178-11.614l0,0c6.508,0,11.869,5.113,12.178,11.614l10.473,221.182
	C277.323,445.676,271.775,451.493,264.818,451.493z"/>
<path style="fill:#CFDBE6;" d="M266.521,217.543c-0.3-6.33-5.394-11.329-11.669-11.59v245.539h9.966
	c6.959,0,12.507-5.816,12.178-12.767L266.521,217.543z"/>
<path style="fill:#FFD15D;" d="M264.144,194.01V48.09c0-5.682-6.154-6.682-7.199-1.169l-22.133,116.736
	c-0.312,1.643,0.053,3.379,0.962,4.575l22.133,29.184C260.208,200.454,264.144,198.304,264.144,194.01z"/>
<g>
	<path style="fill:#F9B54C;" d="M256.945,46.923l-2.093,11.042v135.427l3.055,4.027c2.301,3.036,6.239,0.886,6.239-3.408V48.09
		C264.144,42.408,257.989,41.41,256.945,46.923z"/>
	<path style="fill:#F9B54C;" d="M249.916,209.887l126.371,72.959c4.922,2.841,8.864-1.989,4.611-5.651l-90.029-77.536
		c-1.267-1.091-2.953-1.643-4.444-1.455l-36.34,4.575C246.305,203.257,246.198,207.741,249.916,209.887z"/>
</g>
<path style="fill:#FFD15D;" d="M256.912,209.887l-126.371,72.959c-4.922,2.841-8.864-1.989-4.611-5.651l90.029-77.536
	c1.267-1.091,2.953-1.643,4.444-1.455l36.34,4.575C260.523,203.257,260.63,207.741,256.912,209.887z"/>
<circle style="fill:#324A5E;" cx="254.207" cy="203.093" r="27.136"/>
<path style="fill:#2B3B4E;" d="M281.348,203.095c0-14.77-11.809-26.76-26.496-27.103v54.206
	C269.54,229.855,281.348,217.865,281.348,203.095z"/>
<g>
</g>
<g>
</g>
<g>
</g>
<g>
</g>
<g>
</g>
<g>
</g>
<g>
</g>
<g>
</g>
<g>
</g>
<g>
</g>
<g>
</g>
<g>
</g>
<g>
</g>
<g>
</g>
<g>
</g>
</svg>
